<?xml version="1.0" encoding="UTF-8" standalone="no" ?>
<!DOCTYPE svg PUBLIC "-//W3C//DTD SVG 1.1//EN" "http://www.w3.org/Graphics/SVG/1.1/DTD/svg11.dtd">
<svg xmlns="http://www.w3.org/2000/svg" xmlns:xlink="http://www.w3.org/1999/xlink" version="1.1" width="1280" height="1024" viewBox="0 0 1280 1024" xml:space="preserve">
<desc>Created with Fabric.js 5.3.0</desc>
<defs>
</defs>
<g transform="matrix(1 0 0 1 640 512)" id="background-logo"  >
<linearGradient id="SVGID_462451_462454" gradientUnits="userSpaceOnUse" gradientTransform="matrix(1 0 0 1 -640 -512)"  x1="325" y1="0" x2="325" y2="1024">
<stop offset="0%" style="stop-color:rgb(26,26,26);stop-opacity: 1"/>
<stop offset="100%" style="stop-color:rgb(0,0,0);stop-opacity: 1"/>
</linearGradient>
<rect style="stroke: none; stroke-width: 0; stroke-dasharray: none; stroke-linecap: butt; stroke-dashoffset: 0; stroke-linejoin: miter; stroke-miterlimit: 4; fill: url(#SVGID_462451_462454); fill-rule: nonzero; opacity: 1;"  paint-order="stroke"  x="-640" y="-512" rx="0" ry="0" width="1280" height="1024" />
</g>
<g transform="matrix(1.9211538461538462 0 0 1.9211538461538462 640 404.8976393933088)" id="logo-logo"  >
<g style=""  paint-order="stroke"   >
		<g transform="matrix(0.21805902423674353 0 0 0.21805902423674353 -0.4320653126313374 -50.65151474040909)"  >
<path style="stroke: none; stroke-width: 1; stroke-dasharray: none; stroke-linecap: butt; stroke-dashoffset: 0; stroke-linejoin: miter; stroke-miterlimit: 4; fill: rgb(0,0,0); fill-rule: nonzero; opacity: 1;"  paint-order="stroke"  transform=" translate(-1022.0823126210199, -793.1264081630511)" d="M 1078 586 C 1081.501 588.844 1084.765 591.86 1088 595 L 1090.078 596.855 C 1105.777 611.349 1115.106 634.0640000000001 1117 655 C 1117.1322802770994 659.665729269968 1117.1322802770994 664.3342707300321 1117 669.0000000000001 L 1119.025 668.421 C 1183.7330000000002 649.969 1248.279 649.937 1308.717 683.128 C 1325.3100000000002 692.47 1340.794 703.3240000000001 1355 716 L 1357.449 718.117 C 1369.265 728.468 1380.327 739.6239999999999 1390 752 Q 1393.52 756.204 1397.055 760.395 C 1400.865 765.4979999999999 1402.789 769.577 1402 776 C 1400.104 780.853 1397.36 784.093 1393 787 C 1386.282 789.239 1380.033 787.778 1373.434 785.918 L 1371.02 785.267 C 1368.49 784.5830000000001 1365.963 783.8860000000001 1363.4379999999999 783.1880000000001 C 1339.2369999999999 776.5470000000001 1316.137 772.5690000000001 1290.9999999999998 772.6250000000001 L 1287.9829999999997 772.6290000000001 C 1272.9759999999997 772.6780000000001 1258.5899999999997 773.1500000000001 1243.9999999999998 777.0000000000001 L 1240.8319999999999 777.8300000000002 C 1208.5359999999998 786.5520000000001 1179.985 801.7890000000001 1155 824.0000000000001 L 1151.996 826.6330000000002 C 1147.3680000000002 830.7510000000002 1142.9630000000002 834.9000000000002 1138.98 839.6480000000001 C 1137.4072587603662 841.5113739664037 1135.8057331127177 843.3502614502564 1134.176 845.1640000000001 C 1126.097 854.2300000000001 1118.82 863.7410000000001 1111.732 873.5950000000001 C 1110.0329621257058 875.9512863431163 1108.3266205861137 878.3022976497671 1106.6130000000003 880.6480000000004 C 1101.468 887.7160000000001 1096.409 894.8280000000001 1091.5 902.0620000000001 C 1083.69 913.5310000000002 1075.413 924.7230000000002 1065.957 934.8950000000001 C 1064.182 936.8040000000001 1062.4940000000001 938.7590000000001 1060.8120000000001 940.7500000000001 C 1052.429 950.3420000000001 1043.2920000000001 959.4740000000002 1033.0000000000002 967.0000000000001 L 1031.1610000000003 968.3500000000001 C 996.099 993.967 953.768 1013.348 910 1017 L 906.332 1017.355 C 900.246 1017.695 896.047 1017.793 891.25 1013.75 C 887.962 1010.405 886.203 1007.479 885.562 1002.812 C 886.371 995.764 890.472 990.643 894.625 985.062 C 914.517 958.178 930.675 926.377 930.5 892.312 L 930.483 888.347 C 930.286 877.585 928.794 868.057 925 858 L 924.205 855.855 C 920.624 846.446 916.01 838.11 910 830 L 908.102 827.426 C 898.1379999999999 814.4730000000001 886.394 805.1260000000001 873 796 L 869.762 793.75 C 847.063 778.838 819.579 771.166 793 767 L 790.904 766.645 C 752.404 760.274 713.345 767.435 676.203 777.562 L 673.596 778.272 C 672.0665397083826 778.6939267352907 670.5408142110771 779.1292768553434 669.0189999999998 779.5780000000002 C 663.287 781.1930000000001 657.143 782.3470000000001 651.5120000000001 779.9340000000001 C 647.128 776.339 644.1110000000001 773.3240000000001 642 768.0000000000001 C 641.667 757.5070000000001 649.633 751.1480000000001 656.34 743.9060000000001 C 658.3303533688102 741.7272772732011 660.2862626797556 739.5173364478633 662.2069999999999 737.2770000000002 C 672.691 725.26 684.234 713.588 697 704 Q 698.757 702.617 700.512 701.23 C 710.797 693.2 721.685 686.475 733 680 L 734.946 678.86 C 782.806 650.9010000000001 845.225 641.553 898.98 655.462 C 904.342 656.904 909.673 658.438 915 660 Q 917.71 660.784 920.422 661.566 Q 926.22 663.252 932 665 L 931.824 662.387 C 930.972 639.327 940.3389999999999 618.3699999999999 955 601 L 956.617 598.926 C 985.498 562.62 1041.975 560.037 1078 586" stroke-linecap="round" />
</g>
		<g transform="matrix(0.21805902423674353 0 0 0.21805902423674353 -43.39896553313713 27.44998465095449)"  >
<path style="stroke: none; stroke-width: 1; stroke-dasharray: none; stroke-linecap: butt; stroke-dashoffset: 0; stroke-linejoin: miter; stroke-miterlimit: 4; fill: rgb(0,0,0); fill-rule: nonzero; opacity: 1;"  paint-order="stroke"  transform=" translate(-825.0397899788143, -1151.2931919718694)" d="M 628 823 C 635.35 829.87 636.675 839.568 638.688 849 C 649.054 895.255 672.346 942.691 710 973 L 713.004 975.477 C 759.365 1013.197 816.176 1024.528 873.609 1034.387 L 875.998 1034.797 C 880.649 1035.597 880.649 1035.597 885.302 1036.392 C 933.732 1044.646 978.1850000000001 1063.068 1015.377 1095.582 C 1016.5429330472103 1096.599966879388 1017.7126076312381 1097.6136404074666 1018.886 1098.623 C 1030.609 1108.758 1041.3319999999999 1119.688 1050.589 1132.123 C 1052.1568455498411 1134.1975388881992 1053.7445854863736 1136.2569672585325 1055.3519999999999 1138.301 C 1071.1879999999999 1158.594 1071.1879999999999 1158.594 1071.6249999999998 1165.2500000000002 C 1070.6509999999998 1171.0950000000003 1067.5349999999999 1175.2650000000003 1062.9999999999998 1179.0000000000002 C 1055.0839999999998 1182.9580000000003 1045.3209999999997 1179.7670000000003 1037.0619999999997 1178.0620000000001 C 1001.1969999999997 1171.036 963.7739999999997 1170.768 931.9999999999997 1191.0000000000002 C 907.9109999999996 1207.8310000000001 896.8489999999997 1233.8530000000003 891.4649999999997 1261.7740000000003 C 890.5369999999997 1268.2100000000003 890.7549999999997 1274.7570000000003 890.7499999999997 1281.2500000000005 L 890.7479999999997 1283.5750000000005 C 890.7639999999997 1295.0020000000004 891.2789999999997 1305.8600000000006 893.9999999999997 1317.0000000000005 L 894.5039999999997 1319.2460000000005 C 905.6529999999997 1368.8060000000005 938.9959999999996 1413.6220000000005 976.9999999999997 1446.5000000000005 C 979.8599999999997 1448.9750000000004 982.6509999999996 1451.5000000000005 985.3749999999997 1454.1250000000005 L 987.3359999999997 1456.0080000000005 C 990.3359999999997 1459.5990000000004 991.0229999999997 1462.2780000000005 990.8749999999997 1466.9380000000006 C 989.9439999999996 1472.5530000000006 987.4449999999997 1475.8560000000004 982.9999999999997 1479.3750000000005 C 964.2629999999997 1488.6650000000004 926.1219999999996 1473.4960000000005 907.8419999999996 1467.4200000000005 C 844.8939999999997 1445.5440000000006 794.8589999999997 1402.5040000000006 765.3579999999996 1342.8690000000006 C 762.0019999999996 1335.7800000000007 759.3619999999996 1328.4720000000007 756.9999999999997 1321.0000000000007 L 756.3109999999997 1318.8210000000006 C 747 1288.685 747 1288.685 747 1275 L 744.238 1276.355 C 719.1270000000001 1288.259 692.6450000000001 1291.006 666.2660000000001 1281.68 C 643.397 1272.5420000000001 625.008 1254.5900000000001 615.2500000000001 1232 C 606.0570000000001 1208.489 604.5980000000001 1184.12 614.8320000000001 1160.641 C 623.3490000000002 1142.3010000000002 636.8750000000001 1125.4560000000001 655.0000000000001 1116 C 654.5500000000001 1111.333 652.9820000000001 1109.648 649.4380000000001 1106.688 L 646.6800000000001 1104.305 L 644 1102 C 636.747 1095.409 630.875 1087.803 625 1080 L 623.694 1078.272 C 607.97 1057.317 596.503 1034.091 589 1009 L 588.333 1006.848 C 578.662 975.507 575.831 941.452 581 909 L 581.457 906.099 C 584.201 889.259 588.535 873.1510000000001 594 857 L 594.947 854.195 C 604.4 826.5870000000001 604.4 826.5870000000001 615.812 820.5 C 620.445 819.773 623.876 820.843 628 823" stroke-linecap="round" />
</g>
		<g transform="matrix(0.21805902423674353 0 0 0.21805902423674353 52.211656880490764 27.98093124454806)"  >
<path style="stroke: none; stroke-width: 1; stroke-dasharray: none; stroke-linecap: butt; stroke-dashoffset: 0; stroke-linejoin: miter; stroke-miterlimit: 4; fill: rgb(0,0,0); fill-rule: nonzero; opacity: 1;"  paint-order="stroke"  transform=" translate(-1263.5019116373278, -1153.7280675540749)" d="M 1434 826 C 1439.548 829.694 1442.42 833.774 1444.875 839.875 L 1445.861 842.214 C 1446.9299621625846 844.8001528617666 1447.9763353380217 847.3955850197639 1449 849.9999999999999 L 1450.135 852.843 C 1460.77 879.6949999999999 1469.0529999999999 907.538 1469.203 936.645 L 1469.22 939.343 Q 1469.2350000000001 942.158 1469.24 944.972 C 1469.25 947.768 1469.281 950.562 1469.312 953.357 C 1469.408 969.659 1467.6999999999998 985.718 1463.75 1001.562 L 1463.119 1004.143 C 1454.163 1039.4370000000001 1436.7669999999998 1071.974 1412.078 1098.734 C 1410.182 1100.802 1408.37 1102.918 1406.562 1105.062 C 1402.447 1109.808 1397.733 1113.886 1393 1118 C 1393.021 1119.857 1393.021 1119.857 1394 1122 C 1396.0528465119185 1123.619048128472 1398.1801624284112 1125.1413720831451 1400.375 1126.562 C 1420.94 1140.6599999999999 1434.393 1161.8349999999998 1439.684 1186.1409999999998 C 1444.059 1210.646 1438.435 1234.1979999999999 1425 1254.9999999999998 C 1422.509 1258.5099999999998 1419.859 1261.7839999999999 1417 1264.9999999999998 L 1415.023 1267.2619999999997 C 1398.529 1284.9599999999998 1374.2289999999998 1294.3599999999997 1350.329 1295.5209999999997 C 1335.5629999999999 1295.7979999999998 1320.657 1292.0469999999998 1307.594 1285.2339999999997 C 1305.0330000000001 1284.0159999999996 1302.7930000000001 1283.4249999999997 1300 1282.9999999999998 L 1300.156 1286.7699999999998 C 1300.147 1292.6259999999997 1298.903 1298.0249999999999 1297.5 1303.6879999999996 L 1296.691 1306.9859999999996 C 1292.41 1323.8379999999997 1286.2930000000001 1339.7319999999997 1278 1354.9999999999995 L 1276.934 1357.0059999999996 C 1266.824 1375.9989999999996 1253.768 1392.3939999999996 1239 1407.9999999999995 L 1236.348 1410.8159999999996 C 1229.422 1417.9659999999997 1221.96 1424.0509999999995 1214 1429.9999999999995 L 1212.317 1431.2769999999996 C 1191.871 1446.7409999999995 1168.888 1457.9579999999996 1145 1466.9999999999995 L 1142.328 1468.0199999999995 C 1136.0662427260577 1470.35653954296 1129.6757737660703 1472.3324431639217 1123.1879999999999 1473.9379999999994 L 1120.1339999999998 1474.6979999999994 C 1111.5229999999997 1476.7669999999994 1102.8529999999998 1478.3979999999995 1094.1249999999998 1479.8749999999993 L 1090.3289999999997 1480.5269999999994 C 1072.7999999999997 1483.3739999999993 1072.7999999999997 1483.3739999999993 1066.6879999999996 1480.3749999999993 C 1062.3559999999995 1476.5469999999993 1058.2739999999997 1472.7899999999993 1057.6879999999996 1466.8119999999992 C 1058.3239999999996 1459.0529999999992 1063.0789999999997 1454.5749999999991 1068.6249999999995 1449.6879999999992 Q 1070.6359999999995 1447.8589999999992 1072.6409999999996 1446.0229999999992 L 1074.7789999999995 1444.0649999999991 C 1085.2109999999996 1434.3629999999991 1095.3559999999995 1424.3449999999991 1103.9999999999995 1412.999999999999 L 1106.3319999999997 1410.077999999999 C 1129.3379999999997 1381.1309999999992 1145.3569999999997 1348.779999999999 1150.9999999999995 1311.999999999999 L 1151.5279999999996 1308.8049999999992 C 1152.0599999999995 1304.5149999999992 1152.1799999999996 1300.3329999999992 1152.2029999999995 1296.0159999999992 L 1152.2199999999996 1293.423999999999 Q 1152.2349999999997 1290.711999999999 1152.2399999999996 1287.9989999999991 C 1152.2499999999995 1285.298999999999 1152.2809999999995 1282.6009999999992 1152.3119999999994 1279.9019999999991 C 1152.4129999999996 1263.7529999999992 1150.4089999999994 1248.3399999999992 1145.8749999999995 1232.8119999999992 L 1144.9479999999996 1229.6159999999993 C 1136.0689999999997 1199.6799999999994 1122.0399999999997 1172.0039999999992 1107.4379999999996 1144.4999999999993 C 1080.2709999999997 1093.2319999999993 1067.6909999999996 1034.3959999999993 1079.9999999999995 976.9999999999993 L 1080.6819999999996 973.7599999999993 C 1082.9649999999995 963.1219999999993 1085.5639999999996 952.6009999999993 1089.1249999999995 942.3119999999993 L 1089.8199999999995 940.2989999999993 C 1092.0729999999994 934.1659999999993 1095.5809999999994 927.0909999999993 1101.7499999999995 924.1719999999993 C 1105.6249999999995 922.8699999999993 1108.3429999999996 922.7379999999994 1112.1249999999995 924.3749999999993 C 1120.3929999999996 929.4359999999994 1124.1959999999995 938.8869999999993 1128.3749999999995 947.2499999999993 C 1132.7939999999996 955.9039999999993 1137.1769999999995 964.1979999999993 1142.9999999999995 971.9999999999993 L 1144.2069999999997 973.6379999999994 C 1150.0059999999996 981.5099999999993 1150.0059999999996 981.5099999999993 1156.6249999999995 988.6879999999993 L 1159 991 L 1159 993 L 1161 993 L 1161 995 L 1162.789 995.809 C 1165.039 997.021 1166.535 998.302 1168.375 1000.062 C 1189.325 1018.684 1216.987 1026.252 1244.583 1025.152 C 1263.2930000000001 1023.9730000000001 1281.2250000000001 1018.118 1298 1010 L 1299.93 1009.066 C 1309.65 1004.2860000000001 1318.3890000000001 998.551 1327 992 L 1329.617 990.066 C 1350.753 973.7040000000001 1366.974 953.145 1380 930 L 1381.009 928.235 C 1392.844 907.431 1401.579 884.69 1407.102 861.422 L 1407.633 859.1850000000001 C 1408.4936208847357 855.5363531370091 1409.3236500297085 851.8805581037099 1410.1230000000003 848.2179999999998 C 1412.025 839.6940000000001 1413.8410000000001 831.7550000000001 1421.25 826.4380000000001 C 1425.442 824.4050000000001 1429.677 824.3020000000001 1434 826.0000000000001" stroke-linecap="round" />
</g>
		<g transform="matrix(0.21805902423674353 0 0 0.21805902423674353 0.09502420862665417 -42.972277942746565)"  >
<path style="stroke: none; stroke-width: 1; stroke-dasharray: none; stroke-linecap: butt; stroke-dashoffset: 0; stroke-linejoin: miter; stroke-miterlimit: 4; fill: rgb(156,75,17); fill-rule: nonzero; opacity: 1;"  paint-order="stroke"  transform=" translate(-1024.4995000000004, -828.3427300948841)" d="M 844.938 685.688 L 846.976 685.693 C 897.443 685.922 945.085 705.473 981 741 C 983.48 743.564 985.768 746.218 988 749 L 990.328 751.856 C 1002.517 767.068 1020 791.743 1020 812 L 1022 812 L 1022.726 809.547 C 1031.227 785.87 1047.968 765.086 1064.999 746.999 C 1065.618 746.34 1066.2350000000001 745.679 1066.871 744.999 C 1090.316 720.711 1123.191 703.164 1155.999 695.999 L 1159.769 695.14 C 1168.583 693.184 1177.027 691.845 1186.054 691.797 L 1188.66 691.779 Q 1191.3860000000002 691.766 1194.111 691.759 C 1196.832 691.75 1199.5520000000001 691.719 1202.2730000000001 691.687 C 1213.526 691.62 1224.0100000000002 692.604 1234.9990000000003 695 L 1237.8890000000004 695.602 C 1266.8040000000003 701.882 1301.6020000000003 714.725 1321.9990000000003 737 L 1318.6520000000003 736.782 C 1251.3470000000002 732.6360000000001 1185.4540000000002 748.678 1133.8220000000003 793.907 C 1129.1170000000004 798.1700000000001 1124.5470000000003 802.568 1120.0000000000005 806.999 L 1117.3160000000005 809.562 C 1112.6000000000006 814.139 1108.4050000000004 819.009 1104.3010000000004 824.14 C 1102.0030000000004 826.996 1099.6310000000003 829.776 1097.2490000000005 832.563 C 1091.3390000000004 839.643 1086.0260000000005 847.131 1080.6820000000005 854.645 C 1079.020478579059 856.9680649522846 1077.349130269576 859.2840857050343 1075.6680000000006 861.5930000000001 C 1070.4520000000007 868.77 1065.3010000000006 875.976 1060.3130000000006 883.313 C 1031.8900000000006 924.965 996.0680000000006 954.466 947.9990000000006 971 C 948.5370000000006 967.01 949.9190000000006 963.82 951.6290000000006 960.228 C 959.2270000000005 944.2439999999999 963.4130000000006 927.453 965.9990000000006 910 C 966.1860000000006 908.923 966.3710000000005 907.845 966.5620000000006 906.735 C 967.1530000000006 901.688 967.1840000000005 896.701 967.1870000000006 891.625 C 967.1990000000005 890.635 967.2110000000006 889.645 967.2250000000006 888.625 C 967.2350000000006 883.16 966.8180000000006 878.221 965.4800000000006 872.922 C 964.8820000000006 870.528 964.6050000000006 868.135 964.3120000000006 865.687 C 959.0380000000006 833.59 937.9750000000006 801.287 913.0000000000006 781 L 910.0240000000006 778.515 C 865.5240000000006 741.984 807.9380000000006 728.179 751.4380000000006 728.813 Q 747.8500000000006 728.835 744.2640000000006 728.853 Q 735.6310000000005 728.9029999999999 727.0000000000006 729 L 727.0000000000006 727 C 729.0662401204349 725.4184407849426 731.1928268424799 723.917320745852 733.3750000000005 722.5 L 735.4070000000006 721.164 C 760.5610000000006 704.879 787.3900000000006 693.134 816.9990000000006 688 L 819.9270000000006 687.462 C 828.2970000000006 686.029 836.4550000000006 685.65 844.9370000000006 685.688" stroke-linecap="round" />
</g>
		<g transform="matrix(0.21805902423674353 0 0 0.21805902423674353 -46.36329137932977 31.31111393191594)"  >
<path style="stroke: none; stroke-width: 1; stroke-dasharray: none; stroke-linecap: butt; stroke-dashoffset: 0; stroke-linejoin: miter; stroke-miterlimit: 4; fill: rgb(156,75,17); fill-rule: nonzero; opacity: 1;"  paint-order="stroke"  transform=" translate(-811.4456456567963, -1169)" d="M 618 908 L 620 908 L 621.019 910.193 C 631.078 931.738 641.973 951.458 657 970 L 658.503 971.858 C 676.436 993.823 697.5350000000001 1011.702 722 1026 L 723.982 1027.171 C 767.6419999999999 1052.816 817.5459999999999 1061.9550000000002 866.882 1069.938 C 891.044 1073.8490000000002 914.367 1078.327 937 1088 L 939.263 1088.96 C 962.695 1099.056 985.077 1114.058 1002.633 1132.66 C 1004.164 1134.2440000000001 1004.164 1134.2440000000001 1007 1136 L 1007 1138 L 1003.949 1138.044 C 1000.132 1138.103 996.3149999999999 1138.18 992.4979999999999 1138.2620000000002 Q 990.0429999999999 1138.3120000000001 987.588 1138.3460000000002 C 973.303 1138.5530000000003 959.584 1139.9630000000002 946 1144.6880000000003 L 943.751 1145.4580000000003 C 926.38 1151.6240000000003 910.209 1161.1210000000003 897 1174.0000000000002 L 894.375 1176.5000000000002 L 892 1179 L 890.277 1180.773 C 861.993 1211.0259999999998 852.692 1252.687 853.883 1292.9499999999998 C 855.652 1339.177 876.13 1385.7009999999998 904.6750000000001 1421.6369999999997 C 906.7990000000001 1424.3289999999997 908.5290000000001 1426.9099999999996 910.0000000000001 1429.9999999999998 C 903.6390000000001 1428.0829999999999 897.8530000000001 1425.6329999999998 892.0000000000001 1422.4999999999998 L 889.5250000000001 1421.1839999999997 C 873.628 1412.5889999999997 858.5840000000001 1402.3809999999996 845.2970000000001 1390.1089999999997 C 843.2410000000001 1388.2209999999998 841.1370000000002 1386.4199999999996 839.0000000000001 1384.6249999999998 C 807.7980000000001 1357.2299999999998 787.3760000000001 1313.9259999999997 783.0000000000001 1272.9999999999998 C 782.7190000000002 1267.9749999999997 782.6650000000001 1262.9699999999998 782.6880000000001 1257.9379999999999 L 782.6940000000001 1255.9009999999998 C 782.8280000000001 1229.7549999999999 788.2640000000001 1205.4279999999999 800.0000000000001 1181.9999999999998 L 801.0260000000001 1179.9429999999998 C 809.2700000000001 1163.7389999999998 820.6840000000001 1150.2309999999998 833.0000000000001 1136.9999999999998 L 830.1800000000001 1137.0319999999997 C 773.0300000000001 1137.5899999999997 721.2510000000001 1124.8159999999998 678.2540000000001 1085.0619999999997 C 676.2600000000001 1083.2379999999996 674.2130000000001 1081.5269999999996 672.1250000000001 1079.8119999999997 C 656.1000000000001 1065.6779999999997 643.6310000000001 1046.2099999999996 634.8600000000001 1026.8749999999998 C 634.0042506967949 1025.0273421312356 633.1211536405631 1023.1924738045086 632.2110000000001 1021.3709999999996 C 615.344 986.321 613.488 945.951 618 908" stroke-linecap="round" />
</g>
		<g transform="matrix(0.21805902423674353 0 0 0.21805902423674353 54.38422423208544 31.747231980389373)"  >
<path style="stroke: none; stroke-width: 1; stroke-dasharray: none; stroke-linecap: butt; stroke-dashoffset: 0; stroke-linejoin: miter; stroke-miterlimit: 4; fill: rgb(55,111,156); fill-rule: nonzero; opacity: 1;"  paint-order="stroke"  transform=" translate(-1273.4651193477134, -1171)" d="M 1428 912 L 1430 912 Q 1430.474 914.467 1430.938 916.938 L 1431.4650000000001 919.715 C 1435.1440000000002 942.303 1433.748 965.7090000000001 1429.0000000000002 988 L 1428.4170000000001 990.753 C 1421.006 1024.691 1404.8550000000002 1054.777 1381.0000000000002 1080 L 1378.5900000000001 1082.605 C 1350.0210000000002 1112.467 1306.0230000000001 1134.383 1264.3840000000002 1136.108 C 1261.4210000000003 1136.1699999999998 1258.4630000000002 1136.19 1255.5000000000002 1136.1879999999999 L 1252.3050000000003 1136.187 C 1241.6550000000002 1136.11 1231.4920000000002 1134.77 1221.0000000000002 1133 L 1222.8710000000003 1135.535 C 1229.1100000000004 1144.073 1234.7980000000002 1152.7930000000001 1240.0000000000002 1162 L 1241.2350000000001 1164.175 C 1265.2020000000002 1206.825 1272.853 1255.6119999999999 1260.0420000000001 1303.081 C 1251.1680000000001 1334.454 1234.352 1360.579 1212.0000000000002 1384 L 1210.1800000000003 1385.98 C 1191.8490000000004 1405.371 1165.6820000000002 1420.253 1141.0000000000002 1430 L 1138.0000000000002 1430 C 1139.3220000000001 1427.189 1140.8080000000002 1424.775 1142.6880000000003 1422.305 C 1150.4340000000004 1411.96 1157.1110000000003 1401.499 1163.0000000000002 1390 L 1164.3670000000002 1387.372 C 1191.7600000000002 1334.307 1196.2910000000002 1273.903 1179.0000000000002 1217 C 1177.0770000000002 1210.979 1174.9780000000003 1205.028 1172.7790000000002 1199.103 C 1172.1175032476804 1197.310203710724 1171.4684875405278 1195.5128268781782 1170.8320000000003 1193.711 C 1165.3430000000003 1178.689 1158.2410000000004 1164.27 1150.9300000000003 1150.066 L 1149.5560000000003 1147.3980000000001 C 1147.28549123244 1142.993817220166 1145.0004788316874 1138.5971266926788 1142.7010000000005 1134.2080000000008 C 1119.4020000000003 1089.517 1109.1150000000002 1046.443 1115.0000000000002 996.0000000000001 C 1118.7550000000003 999.5930000000001 1121.9340000000002 1003.4120000000001 1125.0620000000001 1007.5620000000001 C 1147.7110000000002 1036.794 1180.2800000000002 1054.7230000000002 1216.633 1060.5860000000002 C 1242.041 1063.5030000000002 1266.959 1060.1810000000003 1291 1052.0000000000002 L 1293.103 1051.3010000000002 C 1310.634 1045.4150000000002 1327.0510000000002 1036.8600000000001 1342 1026.0000000000002 L 1343.689 1024.7820000000002 C 1352.371 1018.4680000000002 1360.268 1011.4340000000002 1368 1004.0000000000001 L 1369.657 1002.4250000000001 C 1377.388 995.0550000000001 1384.272 987.3420000000001 1390.662 978.783 C 1391.9939483135117 977.0161342215553 1393.3423402447952 975.2617246456974 1394.707 973.52 C 1408.8220000000001 955.159 1420.229 933.817 1428 912" stroke-linecap="round" />
</g>
		<g transform="matrix(0.21805902423674353 0 0 0.21805902423674353 -0.43983777064715923 -50.70360697179692)"  >
<path style="stroke: none; stroke-width: 1; stroke-dasharray: none; stroke-linecap: butt; stroke-dashoffset: 0; stroke-linejoin: miter; stroke-miterlimit: 4; fill: rgb(248,247,248); fill-rule: nonzero; opacity: 1;"  paint-order="stroke"  transform=" translate(-1022.0466687945692, -792.8875176536118)" d="M 1079 585 C 1082.501 587.844 1085.765 590.86 1089 594 L 1091.078 595.855 C 1106.777 610.349 1116.106 633.0640000000001 1118 654 C 1118.1322802770994 658.665729269968 1118.1322802770994 663.3342707300321 1118 668.0000000000001 L 1120.053 667.329 C 1134.8980000000001 662.5179999999999 1149.555 658.3209999999999 1165 656 L 1168.409 655.467 C 1177.4140000000002 654.1469999999999 1186.2160000000001 653.648 1195.3120000000001 653.688 L 1197.393 653.694 C 1256.376 653.9879999999999 1312.0230000000001 675.759 1356 715 L 1358.449 717.117 C 1370.265 727.468 1381.327 738.6239999999999 1391 751 Q 1394.52 755.204 1398.055 759.395 C 1401.8100000000002 764.424 1403.582 768.5319999999999 1403.352 774.758 C 1402.576 779.701 1400.093 782.9870000000001 1396.438 786.375 C 1391.0590000000002 789.961 1385.218 789.836 1379.017 788.607 C 1373.405 787.302 1367.8600000000001 785.7379999999999 1362.3120000000001 784.188 C 1338.528 777.622 1315.7220000000002 773.567 1291.0000000000002 773.625 L 1288.1270000000002 773.629 C 1238.565 773.8 1192.976 792.13 1156 825 L 1152.996 827.633 C 1148.3680000000002 831.7510000000001 1143.9630000000002 835.9000000000001 1139.98 840.648 C 1138.4072587603662 842.5113739664035 1136.8057331127177 844.3502614502563 1135.176 846.164 C 1127.097 855.23 1119.82 864.741 1112.732 874.595 C 1111.0329621257058 876.9512863431162 1109.3266205861137 879.302297649767 1107.6130000000003 881.6480000000003 C 1102.468 888.716 1097.409 895.828 1092.5 903.062 C 1084.69 914.5310000000001 1076.413 925.723 1066.957 935.895 C 1065.182 937.804 1063.4940000000001 939.759 1061.8120000000001 941.75 C 1053.429 951.342 1044.2920000000001 960.474 1034.0000000000002 968 L 1032.1610000000003 969.35 C 997.179 994.909 954.706 1014.501 911 1018 L 909.005 1018.181 C 895.495 1019.293 895.495 1019.293 890.125 1014.75 C 886.732 1011.189 884.716 1007.786 884.562 1002.812 C 884.772 995.263 889.2810000000001 989.918 893.625 984.062 C 908.036 964.586 919.234 943.247 926 920 L 927.094 916.547 C 932.0780000000001 898.179 930.5880000000001 876.734 924 859 L 923.205 856.846 C 919.624 847.441 915.0070000000001 839.106 909 831 L 907.102 828.426 C 897.1379999999999 815.4730000000001 885.394 806.1260000000001 872 797 L 868.762 794.75 C 846.07 779.843 818.576 772.151 792 768 L 789.872 767.645 C 751.072 761.345 712.067 768.891 674.712 779.274 C 657.311 784.082 657.311 784.082 650.703 780.891 C 646.0169999999999 777.7099999999999 643.188 774.1949999999999 641 769 C 640.108 763.649 641.415 760.107 644.117 755.59 C 647.77 750.565 652.122 746.169 656.4159999999999 741.695 C 658.0849999999999 739.9090000000001 659.68 738.0730000000001 661.2729999999999 736.219 C 671.713 724.208 683.262 712.567 696 703 Q 697.757 701.617 699.512 700.23 C 709.797 692.2 720.685 685.475 732 679 L 733.946 677.86 C 782.394 649.557 845.6990000000001 640.534 900.078 654.462 C 910.51 657.244 920.834 660.36 931 664 L 930.824 661.387 C 929.972 638.327 939.3389999999999 617.3699999999999 954 600 L 955.617 597.926 C 966.161 584.671 982.263 576.403 998 571 L 1000.996 569.965 C 1026.933 562.5590000000001 1057.41 569.44 1079 585 M 972 601 L 969.324 603.359 C 955.2249999999999 616.542 945.529 635.354 944.762 654.836 C 944.534 666.532 945.4209999999999 676.847 949 688 L 945.461 686.164 C 893.432 659.898 835.219 654.612 779.688 672.812 C 742.835 685.474 710.93 706.017 683 733 L 681.417 734.517 C 675.554 740.149 670.1990000000001 745.989 665.145 752.355 C 662.418 755.7180000000001 659.499 758.8770000000001 656.531 762.027 C 654.925 764.096 654.5419999999999 765.484 654 768 C 661.952 767.52 669.318 765.791 677 763.75 C 741.187 747.268 810.597 745.353 870 779 C 880.2721309479955 785.1233643630356 889.9772931564933 792.1512404450513 898.9999999999999 800 L 901.195 801.828 C 924.015 821.091 939.257 850.597 943 880 C 946.077 925.18 926.215 963.061 900.394 998.878 C 898.845 1001.039 898.845 1001.039 898 1004 C 936.682 1005.674 981.94 988.42 1013 966 L 1014.93 964.626 C 1023.2379999999999 958.679 1031.043 952.415 1038.4489999999998 945.375 C 1040.9999999999998 943 1040.9999999999998 943 1043.629 940.914 C 1045.7769999999998 939.18 1047.4779999999998 937.479 1049.25 935.375 C 1051.104 933.196 1052.959 931.044 1054.922 928.961 C 1067.251 915.844 1077.337 900.649 1087.582 885.898 C 1102.478 864.48 1117.949 843.874 1136 825 L 1137.576 823.337 C 1144.616 815.935 1152.066 809.417 1160.253 803.307 C 1161.9200756494242 802.0539396499822 1163.5781185218489 800.7889069397186 1165.2269999999999 799.5120000000002 C 1188.5199999999998 781.8710000000001 1216.607 770.3280000000001 1244.9999999999998 764 L 1247.7569999999998 763.367 C 1291.8529999999998 753.6519999999999 1337.7499999999998 761.901 1380.4029999999998 774.222 L 1382.8869999999997 774.934 L 1385.0179999999998 775.56 C 1387.3129999999999 776.1439999999999 1387.3129999999999 776.1439999999999 1390.9999999999998 776 C 1389.5129999999997 771.524 1387.0419999999997 768.137 1384.1249999999998 764.5 L 1382.6629999999998 762.657 C 1378.2829999999997 757.212 1373.6039999999998 752.08 1368.8089999999997 747 C 1365.6009999999997 743.601 1362.5519999999997 740.071 1359.5229999999997 736.512 C 1358.1209999999996 734.765 1358.1209999999996 734.765 1355.9999999999998 735 L 1355.9999999999998 733 C 1353.5399999999997 730.453 1350.7099999999998 728.275 1347.9999999999998 726 L 1345.4649999999997 723.773 C 1313.577 696.236 1272.819 676.118 1231 670 L 1227.491 669.474 C 1217.325 668.0640000000001 1207.321 667.599 1197.062 667.625 L 1194.6299999999999 667.627 C 1180.464 667.67 1166.84 668.8059999999999 1152.9999999999998 672 L 1150.3199999999997 672.617 C 1134.2979999999998 676.468 1117.1519999999998 681.947 1102.8979999999997 690.305 C 1100 692 1100 692 1098 692 L 1099.059 688.781 L 1100.4379999999999 684.5 L 1101.1349999999998 682.391 C 1107.0399999999997 663.906 1104.7779999999998 643.862 1096.2499999999998 626.625 C 1085.5379999999998 606.022 1069.3959999999997 591.731 1047.1249999999998 584.688 C 1021.1009999999998 576.958 992.2979999999998 582.749 971.9999999999998 601" stroke-linecap="round" />
</g>
		<g transform="matrix(0.21805902423674353 0 0 0.21805902423674353 -43.359015990558426 27.359649541328693)"  >
<path style="stroke: none; stroke-width: 1; stroke-dasharray: none; stroke-linecap: butt; stroke-dashoffset: 0; stroke-linejoin: miter; stroke-miterlimit: 4; fill: rgb(248,247,248); fill-rule: nonzero; opacity: 1;"  paint-order="stroke"  transform=" translate(-825.2229951578636, -1150.8789228998053)" d="M 630.313 823 C 636.784 829.118 638.015 839.821 639.751 848.125 C 650.002 894.326 673.423 941.753 711 972 L 714.003 974.477 C 760.363 1012.197 817.176 1023.528 874.609 1033.387 L 876.996 1033.797 C 881.649 1034.597 881.649 1034.597 886.3009999999999 1035.392 C 934.7309999999999 1043.646 979.185 1062.068 1016.377 1094.582 C 1017.5427201724076 1095.6002115779143 1018.7123956839322 1096.6138859097885 1019.886 1097.623 C 1031.609 1107.758 1042.3319999999999 1118.688 1051.588 1131.123 C 1053.1558455498412 1133.1975388881992 1054.7435854863736 1135.2569672585325 1056.3509999999999 1137.301 C 1073.0559999999998 1158.7020000000002 1073.0559999999998 1158.7020000000002 1072.4599999999998 1167.7420000000002 C 1071.7559999999999 1171.188 1070.2659999999998 1173.3540000000003 1067.9999999999998 1176.0000000000002 L 1066.1229999999998 1178.2500000000002 C 1061.9529999999997 1181.6840000000002 1058.2009999999998 1182.1820000000002 1052.936 1181.8750000000002 C 1047.196 1181.2850000000003 1041.591 1180.1840000000002 1035.936 1179.0620000000001 C 1000.631 1172.1090000000002 964.27 1172.0880000000002 932.9999999999999 1192.0000000000002 C 908.9279999999999 1208.8190000000002 897.7969999999999 1234.8760000000002 892.4649999999999 1262.8020000000001 C 891.5759999999999 1268.9040000000002 891.7549999999999 1275.093 891.7489999999999 1281.2500000000002 L 891.7459999999999 1283.4320000000002 C 891.7639999999999 1294.5620000000004 892.3899999999999 1305.1540000000002 894.9999999999999 1316.0000000000002 L 895.5029999999999 1318.2540000000001 C 906.656 1367.8100000000002 939.997 1412.6240000000003 977.9989999999999 1445.5000000000002 C 980.8583922696081 1447.9662692604618 983.6510647749 1450.5088516906528 986.3739999999999 1453.1250000000002 C 987.0219999999999 1453.7460000000003 987.6679999999999 1454.3680000000002 988.334 1455.0080000000003 C 991.024 1458.2260000000003 991.906 1461.1820000000002 992.3739999999999 1465.3120000000004 C 991.824 1470.7250000000004 990.2439999999999 1474.6650000000004 986.444 1478.6170000000004 C 979.644 1483.7830000000004 971.5749999999999 1482.6910000000005 963.564 1481.6980000000003 C 896.934 1472.4170000000004 831.9259999999999 1440.9760000000003 790.227 1386.9810000000002 C 765.05 1353.595 753.66 1317.282 745 1277 L 742.631 1278.241 C 721.557 1289.051 695.6139999999999 1291.941 672.789 1285.258 C 648.399 1277.161 629.3389999999999 1261.582 616.999 1239 C 606.024 1216.322 602.8530000000001 1190.307 611.164 1166.22 C 619.074 1145.182 633.842 1125.517 654 1115 C 652.62 1111.806 651.118 1110.006 648.437 1107.812 C 639.028 1099.792 631.393 1090.849 624 1081 L 622.697 1079.276 C 606.971 1058.32 595.503 1035.093 588 1010 L 587.332 1007.848 C 580.862 986.877 577.774 965.4799999999999 577.812 943.5619999999999 L 577.815 941.4089999999999 C 577.846 930.1599999999999 578.205 919.1209999999999 579.999 907.9999999999999 L 580.456 905.1079999999998 C 583.2 888.265 587.534 872.154 593 856 L 593.947 853.195 C 603.48 825.355 603.48 825.355 614.812 819.562 C 620.686 818.5260000000001 625.264 819.951 630.312 823 M 619 832 C 614.522 838.268 611.775 844.949 609.062 852.125 L 607.745 855.593 C 599.202 878.5419999999999 592.973 903.332 592.76 927.93 L 592.73 930.7769999999999 C 592.3820000000001 972.818 599.022 1010.5909999999999 619 1048 L 619.971 1049.843 C 624.811 1058.952 630.49 1067.04 637 1075 L 638.292 1076.604 C 650.797 1092.088 664.9350000000001 1105.2630000000001 680.999 1117 C 678.269 1118.82 675.621 1120.052 672.605 1121.308 C 651.312 1130.201 635.514 1144.02 626.285 1165.59 C 619.915 1182.489 617.545 1202.72 624 1220 L 625.135 1223.062 C 633.385 1243.879 647.177 1259.0549999999998 667.475 1268.5659999999998 C 675.585 1271.8659999999998 684.197 1274.6129999999998 692.999 1274.9999999999998 L 696.253 1275.1909999999998 C 719.2420000000001 1275.9349999999997 738.45 1266.1609999999998 755.979 1251.918 L 758 1250 L 758 1248 L 760 1248 C 759.99 1248.572 759.98 1249.144 759.968 1249.734 C 759.776 1261.9309999999998 759.9509999999999 1273.877 761.706 1285.962 C 761.977 1287.844 762.215 1289.73 762.4490000000001 1291.617 C 768.6030000000001 1332.205 790.302 1367.61 818.0010000000001 1397 L 820.0900000000001 1399.219 C 825.3400000000001 1404.63 831.0920000000001 1409.328 837.0000000000001 1414 L 840.0320000000002 1416.441 C 848.2700000000002 1423.001 856.9720000000002 1428.593 866.0000000000001 1434 L 867.7530000000002 1435.07 C 894.8200000000002 1451.569 925.5480000000001 1460.951 956.6240000000001 1466.312 L 959.6050000000001 1466.8329999999999 C 965.7890000000001 1467.841 971.7370000000001 1468.2079999999999 978.0000000000001 1467.9999999999998 C 977.2230000000001 1464.3619999999999 976.1410000000001 1462.7859999999998 973.4380000000001 1460.1879999999999 L 971.4960000000001 1458.293 C 969.45345180372 1456.4247794477321 967.38186612485 1454.588555772287 965.282 1452.7849999999999 C 960.693 1448.7859999999998 956.3620000000001 1444.5549999999998 952.062 1440.2499999999998 L 949.658 1437.8429999999998 C 944.804 1432.9379999999999 940.235 1427.9899999999998 935.988 1422.5469999999998 C 933.802 1419.7469999999998 931.5 1417.0699999999997 929.1880000000001 1414.3749999999998 C 906.7560000000001 1387.4509999999998 890.4130000000001 1356.0279999999998 882.0010000000001 1321.9999999999998 C 881.6910000000001 1320.7809999999997 881.3840000000001 1319.5609999999997 881.0670000000001 1318.3049999999998 C 878.9090000000001 1309.4089999999999 877.8650000000001 1300.7269999999999 877.7270000000001 1291.5819999999999 L 877.6890000000001 1289.244 C 877.4660000000001 1272.28 877.5450000000001 1256.261 883.0010000000001 1240 L 883.7790000000001 1237.6 C 893.1010000000001 1209.55 912.0310000000001 1186.427 938.5330000000001 1173.07 C 944.3970000000002 1170.261 950.4030000000001 1168.066 956.6240000000001 1166.1879999999999 L 958.5750000000002 1165.5959999999998 C 971.1900000000002 1162.0399999999997 983.8650000000001 1161.5659999999998 996.8750000000001 1161.5619999999997 L 999.5050000000001 1161.5539999999996 C 1015.3810000000001 1161.5469999999996 1030.355 1163.3979999999997 1045.9140000000002 1166.4489999999996 C 1050.255 1167.2239999999997 1054.6040000000003 1167.6689999999996 1059.0010000000002 1167.9999999999995 C 1057.5370000000003 1162.4209999999996 1054.7730000000001 1158.4089999999997 1051.438 1153.8119999999994 C 1050.8990000000001 1153.0619999999994 1050.361 1152.3119999999994 1049.808 1151.5389999999995 C 1043.418 1142.6999999999996 1036.502 1134.4239999999995 1029.144 1126.3709999999996 C 1026.494 1123.4409999999996 1023.944 1120.4299999999996 1021.41 1117.3979999999997 C 1020.0939999999999 1115.7649999999996 1020.0939999999999 1115.7649999999996 1018 1115.9999999999998 L 1018 1113.9999999999998 C 1015.584 1111.4179999999997 1012.716 1109.2549999999999 1010 1106.9999999999998 L 1008.293 1105.5619999999997 C 998.933 1097.6949999999997 989.38 1090.4659999999997 979 1083.9999999999998 L 976.997 1082.7469999999998 C 961.357 1073.0459999999998 945.3199999999999 1065.5379999999998 927.875 1059.6879999999999 L 924.197 1058.4489999999998 C 910.005 1053.822 895.702 1050.772 880.965 1048.5349999999999 C 815.533 1038.544 749.984 1025.054 699 980 L 696.328 977.699 C 679.9599999999999 963.389 666.901 945.723 656.001 927 C 655.549 926.228 655.097 925.456 654.6329999999999 924.66 C 638.6189999999999 897.011 629.367 867.679 622.6289999999999 836.5999999999999 C 622.1109999999999 834.0369999999999 622.1109999999999 834.0369999999999 620.9999999999999 831.9999999999999 z" stroke-linecap="round" />
</g>
		<g transform="matrix(0.21805902423674353 0 0 0.21805902423674353 52.19933407724336 27.99391991876746)"  >
<path style="stroke: none; stroke-width: 1; stroke-dasharray: none; stroke-linecap: butt; stroke-dashoffset: 0; stroke-linejoin: miter; stroke-miterlimit: 4; fill: rgb(248,247,248); fill-rule: nonzero; opacity: 1;"  paint-order="stroke"  transform=" translate(-1263.4454003175579, -1153.7876325010652)" d="M 1435.188 825.125 C 1453.998 837.665 1461.98 878.854 1466.218 899.848 C 1468.528 911.9269999999999 1470.142 923.7679999999999 1470.2040000000002 936.082 L 1470.2200000000003 938.915 Q 1470.2350000000004 941.871 1470.2400000000002 944.827 C 1470.2500000000002 947.767 1470.2800000000002 950.706 1470.3120000000001 953.646 C 1470.4060000000002 970.2049999999999 1468.7620000000002 986.4639999999999 1464.7500000000002 1002.563 L 1464.1190000000001 1005.143 C 1455.162 1040.4370000000001 1437.767 1072.974 1413.0790000000002 1099.734 C 1411.1810000000003 1101.802 1409.3690000000001 1103.918 1407.563 1106.0629999999999 C 1403.4470000000001 1110.8079999999998 1398.7330000000002 1114.886 1393.999 1118.9999999999998 C 1396.969 1122.1369999999997 1400.115 1124.6159999999998 1403.626 1127.1249999999998 C 1423.776 1141.9919999999997 1436.778 1163.5769999999998 1441.249 1188.1869999999997 C 1444.648 1213.5619999999997 1438.881 1237.8489999999997 1424.0230000000001 1258.7849999999996 C 1422.0966487463763 1261.256731032176 1420.0878504298269 1263.6630866446458 1418 1266 L 1416.024 1268.262 C 1399.319 1286.1879999999999 1374.793 1295.473 1350.6139999999998 1296.521 C 1332.9799999999998 1296.812 1316.6919999999998 1291.702 1300.9999999999998 1284 L 1301.1579999999997 1287.77 C 1301.1479999999997 1293.626 1299.9029999999996 1299.025 1298.4999999999998 1304.687 L 1297.6909999999998 1307.9859999999999 C 1293.4109999999998 1324.838 1287.293 1340.732 1279.0009999999997 1355.9999999999998 L 1277.9359999999997 1358.0059999999999 C 1267.8259999999998 1376.9989999999998 1254.7689999999998 1393.3939999999998 1239.9999999999998 1408.9999999999998 L 1237.3489999999997 1411.8159999999998 C 1230.4239999999998 1418.966 1222.9599999999998 1425.0509999999997 1214.9999999999998 1430.9999999999998 L 1213.3189999999997 1432.2769999999998 C 1192.8719999999998 1447.7409999999998 1169.8889999999997 1458.9579999999999 1145.9999999999998 1467.9999999999998 C 1145.1199999999997 1468.3369999999998 1144.2369999999999 1468.6729999999998 1143.3279999999997 1469.0199999999998 C 1127.8039999999999 1474.8239999999998 1111.5529999999997 1478.0899999999997 1095.2499999999998 1480.8749999999998 L 1091.5049999999999 1481.5269999999998 C 1072.462 1484.6359999999997 1072.462 1484.6359999999997 1065.5639999999999 1481.3749999999998 C 1057.3439999999998 1473.7559999999999 1057.3439999999998 1473.7559999999999 1056.762 1469.0819999999999 L 1056.6889999999999 1466.8129999999999 L 1056.5749999999998 1464.5819999999999 C 1057.735 1457.5529999999999 1062.533 1453.175 1067.6269999999997 1448.687 Q 1069.6369999999997 1446.859 1071.6409999999996 1445.023 L 1073.7809999999997 1443.0649999999998 C 1084.2119999999998 1433.3629999999998 1094.3569999999997 1423.3449999999998 1103.0009999999997 1411.9999999999998 C 1103.7709999999997 1411.0359999999998 1104.5409999999997 1410.0719999999997 1105.3329999999999 1409.0779999999997 C 1128.338 1380.1309999999999 1144.357 1347.7799999999997 1149.9999999999998 1310.9999999999998 L 1150.5299999999997 1307.7769999999998 C 1151.0449999999998 1303.6399999999999 1151.1799999999998 1299.6169999999997 1151.2049999999997 1295.4529999999997 L 1151.2209999999998 1292.9969999999998 Q 1151.2359999999999 1290.425 1151.2409999999998 1287.8529999999998 C 1151.2509999999997 1285.2989999999998 1151.2809999999997 1282.745 1151.3129999999996 1280.1909999999998 C 1151.4179999999997 1264.3109999999997 1149.3329999999996 1249.0769999999998 1144.8769999999997 1233.8129999999999 L 1143.9489999999996 1230.616 C 1135.0689999999995 1200.68 1121.0399999999995 1173.004 1106.4389999999996 1145.5 C 1079.0159999999996 1093.749 1066.4449999999997 1033.924 1078.9999999999995 976 L 1079.6829999999995 972.769 C 1081.9659999999994 962.128 1084.5639999999996 951.604 1088.1269999999995 941.313 C 1088.3549999999996 940.648 1088.5839999999996 939.983 1088.8209999999995 939.299 C 1090.9239999999995 933.576 1094.0279999999996 927.665 1099.0009999999995 924 C 1103.8899999999994 922.156 1108.3409999999994 921.241 1113.2509999999995 923.375 C 1121.3969999999995 928.532 1125.2149999999995 937.921 1129.3769999999995 946.25 C 1133.7949999999994 954.904 1138.1789999999994 963.198 1143.9999999999995 971 C 1144.3999999999996 971.54 1144.7969999999996 972.081 1145.2069999999997 972.638 C 1151.0069999999996 980.51 1151.0069999999996 980.51 1157.6269999999997 987.687 L 1160 990 L 1160 992 L 1162 992 L 1162 994 L 1163.79 994.809 C 1166.04 996.021 1167.536 997.302 1169.377 999.063 C 1189.654 1017.088 1216.9299999999998 1025.344 1243.781 1024.152 C 1262.435 1022.873 1280.263 1017.1 1297.001 1009 L 1298.931 1008.066 C 1308.651 1003.2860000000001 1317.391 997.551 1326.001 991 L 1328.619 989.066 C 1349.754 972.7040000000001 1365.9759999999999 952.145 1379 929 C 1379.334 928.418 1379.668 927.835 1380.01 927.235 C 1391.844 906.431 1400.58 883.69 1406.102 860.422 L 1406.633 858.1850000000001 C 1407.494417867588 854.5364633036935 1408.3247812476866 850.88066435165 1409.124 847.2180000000001 C 1412.872 830.416 1412.872 830.416 1420.314 825.5000000000001 C 1425.7240000000002 823.2990000000001 1429.555 823.1370000000001 1435.188 825.1250000000001 M 1426.999 837 C 1425.497 840.538 1424.432 843.994 1423.554 847.734 L 1422.7420000000002 851.125 L 1421.8760000000002 854.75 C 1409.5140000000001 905.125 1388.3160000000003 949.607 1351.9990000000003 987 L 1350.2490000000003 988.81 C 1346.5320000000002 992.5989999999999 1342.6960000000001 996.0619999999999 1338.4990000000003 999.313 L 1336.6790000000003 1000.726 C 1304.3310000000004 1025.526 1263.1690000000003 1042.574 1221.7190000000003 1037.535 C 1194.8530000000003 1033.6370000000002 1172.6200000000003 1021.4780000000001 1152.9990000000003 1003.0000000000001 L 1150.8710000000003 1001.1020000000001 C 1138.5570000000002 989.6270000000001 1129.1750000000004 974.614 1120.9990000000003 960.0000000000001 C 1120.5340000000003 959.1720000000001 1120.0690000000002 958.3440000000002 1119.5880000000002 957.4910000000001 C 1109.8120000000001 940.0720000000001 1109.8120000000001 940.0720000000001 1107.9990000000003 935.0000000000001 L 1105.9990000000003 935.0000000000001 C 1095.1890000000003 957.7160000000001 1088.9760000000003 984.8500000000001 1088.7620000000002 1010.0000000000001 L 1088.7320000000002 1012.8640000000001 C 1088.4200000000003 1041.6650000000002 1088.4200000000003 1041.6650000000002 1092.9990000000003 1070.0000000000002 C 1093.2460000000003 1071.0390000000002 1093.4940000000001 1072.0780000000002 1093.7470000000003 1073.1480000000001 C 1100.4140000000002 1100.9450000000002 1111.6320000000003 1125.978 1124.7970000000003 1151.2420000000002 C 1146.9640000000002 1193.8100000000002 1165.2060000000004 1236.1560000000002 1165.2490000000003 1284.9370000000001 C 1165.2520000000002 1285.7120000000002 1165.2530000000002 1286.487 1165.2540000000004 1287.285 C 1165.2430000000004 1299.4350000000002 1164.5560000000003 1311.0890000000002 1161.9990000000003 1323 L 1161.5790000000002 1325.124 C 1155.045 1357.877 1140.2690000000002 1386.689 1119.9990000000003 1413 L 1117.8480000000002 1415.801 C 1113.1570000000002 1421.773 1108.1170000000002 1427.3919999999998 1102.9990000000003 1433 C 1102.3850000000002 1433.699 1101.7690000000002 1434.397 1101.1350000000002 1435.117 C 1094.5120000000002 1442.596 1087.4650000000001 1449.587 1080.332 1456.572 Q 1078.019 1458.8429999999998 1075.7140000000002 1461.125 L 1072.9690000000003 1463.82 C 1070.7760000000003 1465.758 1070.7760000000003 1465.758 1070.9990000000003 1468 C 1123.2000000000003 1470.572 1180.9660000000003 1443.875 1219.0730000000003 1409.551 C 1221.7560000000003 1407.076 1224.3800000000003 1404.542 1226.9990000000003 1402 L 1228.6440000000002 1400.434 C 1236.9240000000002 1392.543 1244.2680000000003 1384.249 1250.9990000000003 1375 C 1251.4140000000002 1374.437 1251.8270000000002 1373.873 1252.2520000000002 1373.292 C 1268.2090000000003 1351.2469999999998 1278.8060000000003 1326.3799999999999 1284.9990000000003 1300 C 1285.1790000000003 1299.255 1285.3570000000002 1298.51 1285.5410000000002 1297.743 C 1286.7091292125947 1292.6975153622914 1287.5723582874373 1287.5862642135337 1288.1260000000002 1282.437 C 1288.2090000000003 1281.674 1288.294 1280.9099999999999 1288.3820000000003 1280.1239999999998 C 1289.1720000000003 1272.4089999999999 1289.1890000000003 1264.745 1288.9990000000003 1256.9999999999998 L 1291.4930000000002 1258.9769999999999 C 1311.0710000000001 1274.3709999999999 1332.4980000000003 1284.6599999999999 1357.9990000000003 1281.9999999999998 C 1367.8770000000002 1280.5259999999998 1377.1910000000003 1277.7519999999997 1385.9990000000003 1272.9999999999998 L 1388.5390000000002 1271.6639999999998 C 1406.4650000000001 1261.6189999999997 1419.1560000000002 1245.1119999999999 1424.9990000000003 1225.5739999999998 C 1429.5690000000002 1209.2409999999998 1429.5950000000003 1193.072 1423.9990000000003 1176.9999999999998 C 1423.6380000000001 1175.9529999999997 1423.2750000000003 1174.9069999999997 1422.9020000000003 1173.8279999999997 C 1415.2050000000004 1153.6829999999998 1400.7050000000004 1139.7169999999996 1381.4880000000003 1130.5039999999997 C 1377.1450000000002 1128.6309999999996 1372.7540000000004 1127.1009999999997 1368.2310000000002 1125.7269999999996 C 1365.9990000000003 1124.9999999999995 1365.9990000000003 1124.9999999999995 1364.9990000000003 1123.9999999999995 L 1367.2390000000003 1122.3479999999995 C 1370.5070000000003 1119.9179999999994 1373.7560000000003 1117.4639999999995 1376.9990000000003 1114.9999999999995 L 1379.6130000000003 1113.0309999999995 C 1404.2100000000003 1093.7509999999995 1422.8480000000002 1068.8399999999995 1436.1690000000003 1040.7409999999995 C 1436.884314773427 1039.2498211469983 1437.6143504293148 1037.7657486629746 1438.3590000000004 1036.2889999999995 C 1458.5990000000004 994.6289999999996 1460.6470000000004 945.7539999999996 1451.9990000000005 900.9999999999995 L 1451.2690000000005 897.0859999999996 C 1447.7070000000006 879.5049999999995 1441.1120000000005 862.1069999999995 1433.5620000000004 845.8749999999995 L 1432.6010000000003 843.7969999999996 C 1431.0150000000003 840.5419999999996 1430.0820000000003 839.0549999999996 1426.9990000000003 836.9999999999995" stroke-linecap="round" />
</g>
		<g transform="matrix(0.21805902423674353 0 0 0.21805902423674353 -32.47044608615711 -42.972277942746565)"  >
<path style="stroke: none; stroke-width: 1; stroke-dasharray: none; stroke-linecap: butt; stroke-dashoffset: 0; stroke-linejoin: miter; stroke-miterlimit: 4; fill: rgb(244,130,30); fill-rule: nonzero; opacity: 1;"  paint-order="stroke"  transform=" translate(-875.1570437142751, -828.3427300948841)" d="M 844.938 685.688 L 846.976 685.693 C 897.443 685.922 945.085 705.473 981 741 C 983.48 743.564 985.768 746.218 988 749 L 990.328 751.856 C 1002.773 767.386 1012.285 784.855 1018.376 803.813 C 1018.6129999999999 804.553 1018.852 805.292 1019.0989999999999 806.053 C 1022.266 816.455 1023.3689999999999 826.782 1023.3119999999999 837.625 L 1023.2949999999998 841.067 C 1022.8179999999999 874.553 1010.4749999999998 904.839 989.9999999999999 931 L 988.0629999999999 933.563 C 979.472 944.57 969.183 955.613 958 964 L 962 963 L 963 965 L 949 971 C 948 968 948 968 949.222 965.058 Q 950.136 963.2429999999999 951.062 961.438 C 961.726 939.596 967.088 915.3629999999999 967.25 891.126 L 967.279 888.206 C 967.255 882.899 966.766 878.089 965.477 872.939 C 964.887 870.539 964.607 868.141 964.313 865.688 C 959.038 833.59 937.975 801.287 913 781 L 910.024 778.515 C 865.524 741.984 807.938 728.179 751.438 728.813 Q 747.85 728.835 744.264 728.853 Q 735.631 728.9029999999999 727 729 L 727 727 C 729.0662401204344 725.4184407849426 731.1928268424793 723.917320745852 733.3749999999999 722.5 L 735.407 721.164 C 760.561 704.879 787.39 693.134 816.999 688 L 819.927 687.462 C 828.297 686.029 836.455 685.65 844.937 685.688" stroke-linecap="round" />
</g>
		<g transform="matrix(0.21805902423674353 0 0 0.21805902423674353 54.96183284268587 -0.29168077415176796)"  >
<path style="stroke: none; stroke-width: 1; stroke-dasharray: none; stroke-linecap: butt; stroke-dashoffset: 0; stroke-linejoin: miter; stroke-miterlimit: 4; fill: rgb(109,171,212); fill-rule: nonzero; opacity: 1;"  paint-order="stroke"  transform=" translate(-1276.1139829415142, -1024.072291473904)" d="M 1428 912 L 1430 912 Q 1430.474 914.467 1430.938 916.938 L 1431.4650000000001 919.715 C 1435.1440000000002 942.303 1433.748 965.7090000000001 1429.0000000000002 988 L 1428.4170000000001 990.753 C 1421.006 1024.691 1404.8550000000002 1054.777 1381.0000000000002 1080 L 1378.5900000000001 1082.605 C 1350.0210000000002 1112.467 1306.0230000000001 1134.383 1264.3840000000002 1136.108 C 1221.9170000000001 1136.995 1189.6930000000002 1121.731 1159.3120000000004 1092.625 C 1140.3010000000004 1072.955 1119.2610000000004 1038.987 1118.7500000000005 1010.812 L 1118.6720000000005 1008.207 L 1119.0000000000005 1006 L 1122.0000000000005 1004 L 1124.0550000000005 1006.492 C 1148.2840000000006 1035.6689999999999 1180.2960000000005 1056.414 1218.6440000000005 1060.817 C 1243.7150000000004 1062.766 1267.2870000000005 1060.069 1291.0000000000005 1052 L 1293.1030000000005 1051.301 C 1310.6340000000005 1045.415 1327.0510000000006 1036.86 1342.0000000000005 1026 L 1343.6890000000005 1024.782 C 1352.3710000000005 1018.468 1360.2680000000005 1011.434 1368.0000000000005 1003.9999999999999 L 1369.6570000000004 1002.4249999999998 C 1377.3880000000004 995.0549999999998 1384.2720000000004 987.3419999999999 1390.6620000000005 978.7829999999998 C 1391.9939483135122 977.016134221555 1393.3423402447957 975.2617246456972 1394.7070000000006 973.5199999999998 C 1408.8220000000006 955.1589999999998 1420.2290000000005 933.8169999999998 1428.0000000000005 911.9999999999998" stroke-linecap="round" />
</g>
		<g transform="matrix(0.21805902423674353 0 0 0.21805902423674353 -28.832292984263173 53.505270448243884)"  >
<path style="stroke: none; stroke-width: 1; stroke-dasharray: none; stroke-linecap: butt; stroke-dashoffset: 0; stroke-linejoin: miter; stroke-miterlimit: 4; fill: rgb(244,130,30); fill-rule: nonzero; opacity: 1;"  paint-order="stroke"  transform=" translate(-891.8413020916953, -1270.7805000000003)" d="M 912.125 1111.563 C 912.866 1111.5610000000001 913.607 1111.5610000000001 914.371 1111.5600000000002 C 939.548 1111.6260000000002 978.917 1116.1740000000002 999 1133.0000000000002 C 999.711661310576 1134.3103574691702 1000.3787108110096 1135.6444564700373 1001 1137.0000000000002 L 997.145 1137.1130000000003 C 960.21 1138.4000000000003 923.933 1147.1570000000004 897 1174.0010000000002 L 894.43 1176.5510000000002 C 866.4549999999999 1204.7510000000002 853.842 1243.4910000000002 853.6869999999999 1282.688 C 854.132 1333.018 873.4439999999998 1382.3190000000002 904.675 1421.6360000000002 C 906.799 1424.3290000000002 908.529 1426.91 910 1430.0010000000002 C 903.639 1428.0830000000003 897.853 1425.6320000000003 892 1422.5010000000002 C 891.183 1422.0650000000003 890.367 1421.6310000000003 889.525 1421.1840000000002 C 873.6279999999999 1412.5890000000002 858.584 1402.381 845.297 1390.1100000000001 C 843.241 1388.2220000000002 841.1370000000001 1386.42 839 1384.624 C 807.798 1357.229 787.376 1313.9270000000001 783 1273.001 C 782.719 1267.9759999999999 782.665 1262.969 782.687 1257.9379999999999 L 782.694 1255.8999999999999 C 782.828 1229.754 788.264 1205.4279999999999 800 1181.9999999999998 L 801.026 1179.9439999999997 C 806.7589999999999 1168.6739999999998 813.9979999999999 1158.7599999999998 822 1149.0009999999997 L 823.43 1147.2329999999997 C 844.4069999999999 1121.6219999999996 880.18 1111.5489999999998 912.125 1111.5629999999996" stroke-linecap="round" />
</g>
		<g transform="matrix(0.21805902423674353 0 0 0.21805902423674353 0.08994497076767338 -79.3248235153246)"  >
<path style="stroke: none; stroke-width: 1; stroke-dasharray: none; stroke-linecap: butt; stroke-dashoffset: 0; stroke-linejoin: miter; stroke-miterlimit: 4; fill: rgb(244,130,30); fill-rule: nonzero; opacity: 1;"  paint-order="stroke"  transform=" translate(-1024.4762070504112, -661.6330710939772)" d="M 1056.71 615.258 L 1059 617 L 1060.977 618.43 C 1071.173 626.38 1077.674 639.4639999999999 1080 652 C 1081.993 670.178 1077.739 685.826 1066.266 700.168 C 1056.5500000000002 710.902 1041.876 717.24 1027.5900000000001 718.238 C 1010.7520000000002 718.581 996.4940000000001 713.047 984.2800000000002 701.3950000000001 C 973.1480000000003 689.7090000000001 968.1140000000001 676.1350000000001 968.5000000000002 660.1550000000001 C 969.2970000000003 643.5120000000001 975.7270000000002 629.892 987.8830000000003 618.4770000000001 C 1008.2230000000003 602.316 1035.1030000000003 600.0470000000001 1056.7110000000002 615.2570000000001" stroke-linecap="round" />
</g>
		<g transform="matrix(0.21805902423674353 0 0 0.21805902423674353 70.65520517079328 38.762092393489)"  >
<path style="stroke: none; stroke-width: 1; stroke-dasharray: none; stroke-linecap: butt; stroke-dashoffset: 0; stroke-linejoin: miter; stroke-miterlimit: 4; fill: rgb(109,171,212); fill-rule: nonzero; opacity: 1;"  paint-order="stroke"  transform=" translate(-1348.0824436967514, -1203.1695487616398)" d="M 1380.875 1157.25 C 1392.752 1165.793 1400.783 1177.613 1404 1192 C 1405.1 1203.698 1404.75 1215.14 1400 1226 L 1398.937 1228.434 C 1391.762 1242.81 1378.9869999999999 1251.983 1364.0859999999998 1256.9769999999999 C 1348.9019999999998 1261.263 1334.6949999999997 1259.0819999999999 1320.8789999999997 1251.715 C 1308.4599999999996 1244.317 1299.4289999999996 1233.846 1294.9999999999998 1220 L 1294.1019999999999 1217.613 C 1289.841 1205.476 1291.453 1192.374 1296.406 1180.68 C 1303.904 1165.719 1315.2259999999999 1155.3870000000002 1330.937 1149.5 C 1348.377 1144.78 1365.947 1147.225 1380.875 1157.25" stroke-linecap="round" />
</g>
		<g transform="matrix(0.21805902423674353 0 0 0.21805902423674353 -70.66524199712732 37.248100821483916)"  >
<path style="stroke: none; stroke-width: 1; stroke-dasharray: none; stroke-linecap: butt; stroke-dashoffset: 0; stroke-linejoin: miter; stroke-miterlimit: 4; fill: rgb(156,75,17); fill-rule: nonzero; opacity: 1;"  paint-order="stroke"  transform=" translate(-699.9989825211617, -1196.2265131440845)" d="M 733 1150 C 744.382 1158.517 751.897 1171.171 755 1185 C 756.713 1202.525 753.348 1218.599 742.312 1232.688 C 732.07 1243.8100000000002 717.167 1250.933 702.148 1252.25 C 685.6560000000001 1252.622 671.9540000000001 1246.455 659.875 1235.438 C 648.539 1223.5500000000002 644.48 1209.154 644.578 1193.0800000000002 C 645.019 1178.612 650.9889999999999 1166.6280000000002 660.7339999999999 1156.102 C 680.727 1137.557 710.3269999999999 1134.8190000000002 732.9999999999999 1150" stroke-linecap="round" />
</g>
</g>
</g>
<g transform="matrix(1.9211538461538462 0 0 1.9211538461538462 639.8655192307693 686.3598488258051)" id="text-logo"  >
<g style=""  paint-order="stroke"   >
		<g transform="matrix(1 0 0 1 0 0)" id="text-logo-path-0"  >
<path style="stroke: none; stroke-width: 0; stroke-dasharray: none; stroke-linecap: butt; stroke-dashoffset: 0; stroke-linejoin: miter; stroke-miterlimit: 4; fill: rgb(255,255,255); fill-rule: nonzero; opacity: 1;"  paint-order="stroke"  transform=" translate(-230.58, 18.759999999999998)" d="M 2.02 0 L 13.22 0 L 13.22 -12.99 L 27.66 -12.99 L 27.66 0 L 38.86 0 L 38.86 -38.08 L 27.66 -38.08 L 27.66 -23.63 L 13.22 -23.63 L 13.22 -38.08 L 2.02 -38.08 Z M 63.39 0.56 C 74.03 0.56 80.19 -4.59 80.19 -17.53 L 80.19 -38.08 L 69.55 -38.08 L 69.55 -17.75 C 69.55 -12.54 67.54 -10.75 63.39 -10.75 C 59.25 -10.75 57.18 -12.54 57.18 -17.75 L 57.18 -38.08 L 46.59 -38.08 L 46.59 -17.53 C 46.59 -4.59 52.75 0.56 63.39 0.56 Z M 87.92 0 L 97.55 0 L 97.55 -21.17 L 105.9 -7.22 L 108.53 -7.22 L 117.1 -21.28 L 117.1 0 L 128.3 0 L 128.3 -38.08 L 117.04 -38.08 L 108.19 -23.63 L 99.85 -38.08 L 88.37 -38.08 Z M 135.58 0 L 146.66 0 L 149.13 -7.11 L 161.11 -7.11 L 163.86 0 L 175.73 0 L 162.57 -38.08 L 148.68 -38.08 Z M 151.09 -14.78 L 155.23 -27.27 L 159.38 -14.78 Z M 183.01 0 L 192.64 0 L 192.64 -19.38 L 207.09 0 L 215.38 0 L 215.38 -38.08 L 205.18 -38.08 L 205.18 -20.27 L 193.31 -38.08 L 183.01 -38.08 Z M 223.33 0 L 234.53 0 L 234.53 -38.08 L 223.33 -38.08 Z M 242.48 0 L 253.68 0 L 253.68 -12.71 L 266.17 -12.71 L 266.17 -23.35 L 253.68 -23.35 L 253.68 -27.44 L 268.97 -27.44 L 268.97 -38.08 L 242.48 -38.08 Z M 276.47 0 L 287.67 0 L 287.67 -38.08 L 276.47 -38.08 Z M 295.62 0 L 322.11 0 L 322.11 -10.19 L 306.82 -10.19 L 306.82 -14.17 L 319.87 -14.17 L 319.87 -24.36 L 306.82 -24.36 L 306.82 -27.89 L 321.55 -27.89 L 321.55 -38.08 L 295.62 -38.08 Z M 329.62 0 L 343.5 0 C 355.32 0 362.71 -7 362.71 -19.04 C 362.71 -31.08 355.32 -38.08 343.5 -38.08 L 329.62 -38.08 Z M 340.82 -10.58 L 340.82 -27.44 L 343.5 -27.44 C 348.54 -27.44 351.4 -24.7 351.4 -19.04 C 351.4 -13.38 348.54 -10.58 343.5 -10.58 Z M 369.77 -9.3 L 394.52 -9.3 L 394.52 -18.48 L 369.77 -18.48 Z M 400.51 0 L 411.6 0 L 414.06 -7.11 L 426.05 -7.11 L 428.79 0 L 440.66 0 L 427.5 -38.08 L 413.62 -38.08 Z M 416.02 -14.78 L 420.17 -27.27 L 424.31 -14.78 Z M 447.94 0 L 459.14 0 L 459.14 -38.08 L 447.94 -38.08 Z" stroke-linecap="round" />
</g>
</g>
</g>
<g transform="matrix(1.9211538461538462 0 0 1.9211538461538462 639.9553331730767 775.4551106352965)" id="tagline-1ae2cdbf-7df3-40ac-a0a6-4903a8b92c7b-logo"  >
<g style=""  paint-order="stroke"   >
		<g transform="matrix(1 0 0 1 5.684342e-14 0)" id="tagline-1ae2cdbf-7df3-40ac-a0a6-4903a8b92c7b-logo-path-0"  >
<path style="stroke: none; stroke-width: 0; stroke-dasharray: none; stroke-linecap: butt; stroke-dashoffset: 0; stroke-linejoin: miter; stroke-miterlimit: 4; fill: rgb(244,130,30); fill-rule: nonzero; opacity: 1;"  paint-order="stroke"  transform=" translate(-261.58, 10.85)" d="M 1.86 -21.7 L 1.86 0 L 4.65 0 L 4.65 -21.7 Z M 20.77 -21.7 L 20.77 0 L 23.56 0 L 23.56 -17.76 L 34.72 0 L 38.13 0 L 38.13 -21.7 L 35.34 -21.7 L 35.34 -3.94 L 24.18 -21.7 Z M 69.53 -21.7 L 52.48 -21.7 L 52.48 -19.22 L 59.61 -19.22 L 59.61 0 L 62.4 0 L 62.4 -19.22 L 69.53 -19.22 Z M 83.89 -21.7 L 83.89 0 L 98.61 0 L 98.61 -2.48 L 86.68 -2.48 L 86.68 -10.07 L 97.37 -10.07 L 97.37 -12.55 L 86.68 -12.55 L 86.68 -19.22 L 98.3 -19.22 L 98.3 -21.7 Z M 129.49 -16.03 L 132.12 -17.2 C 130.29 -20.27 127.13 -22.2 123.32 -22.2 C 117.24 -22.2 112.81 -17.39 112.81 -10.88 C 112.81 -4.31 117.49 0.5 123.94 0.5 C 127.81 0.5 131.22 -1.18 132.9 -3.88 L 132.9 -11.94 L 123.97 -11.94 L 123.97 -9.46 L 130.11 -9.46 L 130.11 -4.87 C 128.9 -3.16 126.51 -2.14 123.94 -2.14 C 119.2 -2.14 115.72 -5.83 115.72 -10.88 C 115.72 -15.87 118.95 -19.56 123.32 -19.56 C 125.92 -19.56 128.12 -18.2 129.49 -16.03 Z M 148.34 -21.7 L 148.34 0 L 151.13 0 L 151.13 -8.53 L 156.46 -8.53 L 161.98 0 L 165.85 0 L 165.85 -2.48 L 163.68 -2.48 L 159.62 -8.74 C 162.56 -9.42 164.39 -11.78 164.39 -15.13 C 164.39 -19.1 161.76 -21.7 157.79 -21.7 Z M 151.13 -11.01 L 151.13 -19.22 L 157.39 -19.22 C 159.81 -19.22 161.45 -17.61 161.45 -15.13 C 161.45 -12.62 159.81 -11.01 157.39 -11.01 Z M 180.7 -21.7 L 180.7 0 L 183.49 0 L 183.49 -21.7 Z M 214.86 -21.7 L 197.81 -21.7 L 197.81 -19.22 L 204.94 -19.22 L 204.94 0 L 207.73 0 L 207.73 -19.22 L 214.86 -19.22 Z M 227.23 -21.7 L 235.23 -9.58 L 235.23 0 L 238.02 0 L 238.02 -9.58 L 246.02 -21.7 L 242.67 -21.7 L 236.62 -12.24 L 230.58 -21.7 Z M 259.38 -9.77 L 268.49 -9.77 L 268.49 -12.24 L 259.38 -12.24 Z M 291.37 0.5 C 295.74 0.5 300.08 -1.18 300.08 -5.8 C 300.08 -10.57 295.62 -11.84 291.74 -12.9 C 288.8 -13.7 286.19 -14.17 286.19 -16.46 C 286.19 -18.32 288.49 -19.56 291.56 -19.56 C 293.76 -19.56 295.65 -18.69 296.79 -16.03 L 299.43 -17.2 C 297.94 -20.8 294.97 -22.2 291.56 -22.2 C 287.15 -22.2 283.34 -19.93 283.34 -16.37 C 283.34 -12.34 287.25 -11.13 290.94 -10.07 C 294.19 -9.14 297.23 -8.53 297.23 -5.67 C 297.23 -3.29 294.66 -2.14 291.56 -2.14 C 288.95 -2.14 286.75 -3.07 285.42 -5.67 L 282.75 -4.5 C 284.7 -0.71 287.65 0.5 291.37 0.5 Z M 330.55 -21.7 L 313.5 -21.7 L 313.5 -19.22 L 320.63 -19.22 L 320.63 0 L 323.42 0 L 323.42 -19.22 L 330.55 -19.22 Z M 344.91 -21.7 L 344.91 0 L 347.7 0 L 347.7 -8.53 L 353.03 -8.53 L 358.55 0 L 362.42 0 L 362.42 -2.48 L 360.25 -2.48 L 356.19 -8.74 C 359.13 -9.42 360.96 -11.78 360.96 -15.13 C 360.96 -19.1 358.33 -21.7 354.36 -21.7 Z M 347.7 -11.01 L 347.7 -19.22 L 353.96 -19.22 C 356.38 -19.22 358.02 -17.61 358.02 -15.13 C 358.02 -12.62 356.38 -11.01 353.96 -11.01 Z M 377.27 -21.7 L 377.27 0 L 391.99 0 L 391.99 -2.48 L 380.06 -2.48 L 380.06 -10.07 L 390.75 -10.07 L 390.75 -12.55 L 380.06 -12.55 L 380.06 -19.22 L 391.68 -19.22 L 391.68 -21.7 Z M 407.09 -21.7 L 407.09 0 L 409.88 0 L 409.88 -17.76 L 421.04 0 L 424.45 0 L 424.45 -21.7 L 421.66 -21.7 L 421.66 -3.94 L 410.5 -21.7 Z M 456.38 -16.03 L 459.02 -17.2 C 457.19 -20.27 454.03 -22.2 450.21 -22.2 C 444.14 -22.2 439.7 -17.39 439.7 -10.88 C 439.7 -4.31 444.38 0.5 450.83 0.5 C 454.71 0.5 458.12 -1.18 459.79 -3.88 L 459.79 -11.94 L 450.86 -11.94 L 450.86 -9.46 L 457 -9.46 L 457 -4.87 C 455.79 -3.16 453.41 -2.14 450.83 -2.14 C 446.09 -2.14 442.62 -5.83 442.62 -10.88 C 442.62 -15.87 445.84 -19.56 450.21 -19.56 C 452.82 -19.56 455.02 -18.2 456.38 -16.03 Z M 489.89 -21.7 L 472.84 -21.7 L 472.84 -19.22 L 479.97 -19.22 L 479.97 0 L 482.76 0 L 482.76 -19.22 L 489.89 -19.22 Z M 504.25 -21.7 L 504.25 0 L 507.04 0 L 507.04 -10.07 L 518.51 -10.07 L 518.51 0 L 521.3 0 L 521.3 -21.7 L 518.51 -21.7 L 518.51 -12.55 L 507.04 -12.55 L 507.04 -21.7 Z" stroke-linecap="round" />
</g>
</g>
</g>
</svg>